<svg width="39" height="29" fill="none" xmlns="http://www.w3.org/2000/svg"><mask id="a" style="mask-type:luminance" maskUnits="userSpaceOnUse" x="0" y="0" width="39" height="29"><path d="M38.973.135H.027v28.73h38.946V.135z" fill="#fff"/></mask><g mask="url(#a)"><mask id="b" style="mask-type:luminance" maskUnits="userSpaceOnUse" x="0" y="0" width="39" height="29"><path d="M38.973.135H.027v28.73h38.946V.135z" fill="#fff"/></mask><g mask="url(#b)"><path d="M35.997 28.621a11.823 11.823 0 00-3.669-3.263c-1.906-.912-4.128-.736-6.234-.565-3.906.374-7.833.49-11.754.35a5.162 5.162 0 01-3.245-.955 5.1 5.1 0 01-1.308-2.65 45.198 45.198 0 01-1.037-5.42 17.385 17.385 0 01-.031-5.31 7.852 7.852 0 012.461-4.612c2.106-1.795 5.11-1.95 7.876-2.02l11.952-.3c1.95-.049 4.142 0 5.5 1.391a6.968 6.968 0 011.463 3.037c1.1 3.814 1.151 10.8-.878 13.418a8.356 8.356 0 00-1.6 2.124c-.546 1.561.576 3.186.507 4.773" fill="#fff"/><path d="M35.998 28.865a.245.245 0 01-.186-.086 11.713 11.713 0 00-3.588-3.2c-1.855-.887-4.017-.711-6.109-.542a89.757 89.757 0 01-11.791.351 5.38 5.38 0 01-3.394-1.016A5.35 5.35 0 019.548 21.6a45.541 45.541 0 01-1.042-5.451 17.658 17.658 0 01-.029-5.384 8.092 8.092 0 012.543-4.753c2.1-1.786 4.993-2 8.028-2.078L31 3.634c2.1-.051 4.272.017 5.684 1.465a7.16 7.16 0 011.523 3.139c1.068 3.7 1.24 10.851-.919 13.636-.181.234-.385.453-.582.666-.42.39-.755.864-.984 1.389a4.455 4.455 0 00.185 2.632c.216.67.329 1.368.336 2.071a.244.244 0 01-.245.233zm-7.365-4.452a8.736 8.736 0 013.8.725 10.578 10.578 0 013.279 2.775c-.07-.414-.163-.823-.279-1.226a4.878 4.878 0 01-.176-2.919c.25-.59.62-1.121 1.087-1.56.19-.2.386-.416.554-.633 1.876-2.419 1.991-9.2.836-13.2a6.678 6.678 0 00-1.4-2.934c-1.276-1.307-3.329-1.369-5.323-1.318l-11.952.3c-2.944.074-5.75.279-7.723 1.962a7.605 7.605 0 00-2.379 4.47 17.228 17.228 0 00.033 5.235 45.129 45.129 0 001.031 5.392 4.874 4.874 0 001.236 2.525 4.984 4.984 0 003.1.893c3.912.14 7.83.024 11.726-.35.822-.067 1.688-.137 2.557-.137" fill="#000"/><path d="M2.9 26.933a54.697 54.697 0 012.713-4.561c.233-.392.529-.744.875-1.042.46-.316.982-.529 1.531-.625a33.44 33.44 0 016.111-.642l10.555-.456a7.912 7.912 0 004.269-1.008 6.079 6.079 0 001.669-1.953c.53-.87.915-1.819 1.14-2.812a12.92 12.92 0 00.051-3.919c-.225-2.246-.635-4.616-2.127-6.31-1.73-1.965-4.512-2.578-7.113-2.876A64.737 64.737 0 008.766.776c-2.3.231-4.788.651-6.332 2.365a8.132 8.132 0 00-1.71 4.071c-.4 2.676-.55 5.383-.451 8.087a5.567 5.567 0 00.38 2.421 13.65 13.65 0 001.368 1.819c1.449 2.032 1.061 4.8.879 7.4" fill="#fff"/><path d="M2.899 27.177a.244.244 0 01-.243-.261c.018-.256.038-.513.058-.772.179-2.315.363-4.708-.892-6.469-.158-.222-.343-.437-.522-.646-.34-.363-.63-.77-.866-1.208a5.779 5.779 0 01-.4-2.522 44.14 44.14 0 01.453-8.132 8.519 8.519 0 011.769-4.191C3.817 1.243 6.298.777 8.745.535a64.58 64.58 0 0113.86-.05c2.415.277 5.424.862 7.268 2.957 1.529 1.737 1.954 4.125 2.187 6.447a13.255 13.255 0 01-.055 3.994 9.5 9.5 0 01-1.169 2.886 6.232 6.232 0 01-1.74 2.029 8.173 8.173 0 01-4.4 1.052l-10.556.456a33.4 33.4 0 00-6.066.636 3.69 3.69 0 00-1.436.581 3.985 3.985 0 00-.822.984 52.902 52.902 0 00-2.7 4.541.244.244 0 01-.217.129zM16.227.622a74.79 74.79 0 00-7.436.394c-2.35.236-4.725.676-6.175 2.286A7.675 7.675 0 00.967 7.254a43.774 43.774 0 00-.447 8.042 5.413 5.413 0 00.351 2.312c.218.4.487.77.8 1.1.186.217.378.441.55.68 1.287 1.813 1.179 4.147 1.006 6.431a54.34 54.34 0 012.185-3.583c.247-.416.561-.788.93-1.101a4.11 4.11 0 011.625-.67 33.673 33.673 0 016.155-.648l10.556-.456a7.805 7.805 0 004.14-.964 5.772 5.772 0 001.6-1.877 9.023 9.023 0 001.109-2.737c.21-1.273.226-2.57.048-3.848-.224-2.241-.63-4.54-2.068-6.173C27.773 1.795 24.878 1.235 22.55.97a55.43 55.43 0 00-6.323-.348z" fill="#000"/><path d="M6.473 13.501a.244.244 0 01-.009-.488l18.573-.736a.241.241 0 01.233.14.245.245 0 01-.213.346l-18.574.74-.01-.002zm-.347-5.378a.244.244 0 11-.01-.488l18.92-.782a.244.244 0 11.02.487l-18.92.782h-.01m5.443 14.681a.083.083 0 01-.08-.066.081.081 0 01.013-.061l1.19-1.785a.081.081 0 11.136.09l-1.191 1.786a.083.083 0 01-.068.036zm1.454.914a.082.082 0 01-.08-.094.08.08 0 01.011-.03 46.243 46.243 0 012-3 .083.083 0 01.148.039.083.083 0 01-.016.061c-.7.968-1.37 1.974-1.992 2.993a.08.08 0 01-.069.039m2.444.262a.081.081 0 01-.073-.116 24.065 24.065 0 011.915-3.272.08.08 0 01.113-.02.081.081 0 01.02.113 23.895 23.895 0 00-1.9 3.245.083.083 0 01-.073.046m2.35.09a.083.083 0 01-.07-.04.082.082 0 01-.001-.08l1.807-3.21a.081.081 0 01.111-.032.081.081 0 01.031.111l-1.807 3.21a.08.08 0 01-.03.03.08.08 0 01-.041.011zm2.509.04a.08.08 0 01-.073-.116 39.233 39.233 0 011.867-3.447.081.081 0 11.139.084 39.053 39.053 0 00-1.859 3.433.081.081 0 01-.074.046zm2.658-.119a.08.08 0 01-.075-.05.08.08 0 010-.062 42.031 42.031 0 011.607-3.434.081.081 0 11.144.076 41.862 41.862 0 00-1.6 3.42.083.083 0 01-.076.05zm2.583-.357a.086.086 0 01-.028-.005.082.082 0 01-.048-.1 38.31 38.31 0 011.33-3.133.08.08 0 01.078-.046.08.08 0 01.072.054.082.082 0 01-.003.062 37.822 37.822 0 00-1.324 3.12.081.081 0 01-.076.052m2.338-.006a.084.084 0 01-.036-.008.082.082 0 01-.037-.109l2.622-5.34a.08.08 0 01.078-.045.082.082 0 01.056.027.082.082 0 01.012.09l-2.621 5.34a.083.083 0 01-.074.045zm5.072-11.202a.082.082 0 01-.075-.049.08.08 0 01-.001-.062 82.539 82.539 0 012.67-6.118.081.081 0 11.146.071 84.556 84.556 0 00-2.665 6.106.08.08 0 01-.075.052zm-.794-5.04a.081.081 0 01-.072-.12l1.063-1.99a.08.08 0 01.153.046.08.08 0 01-.01.03L32.259 7.35a.081.081 0 01-.071.043zm-1.931 16.268a.077.077 0 01-.03-.006.079.079 0 01-.045-.043.08.08 0 01-.001-.062c1.938-4.93 4.13-9.756 6.567-14.459a.08.08 0 01.134-.015.082.082 0 01.01.09 153.302 153.302 0 00-6.56 14.444.082.082 0 01-.075.051zm2.15.198a.08.08 0 01-.07-.038.082.082 0 01-.003-.079l4.759-9.731a.08.08 0 01.108-.037.081.081 0 01.038.108l-4.759 9.732a.082.082 0 01-.073.045zm2.838-1.976a.08.08 0 01-.07-.038.082.082 0 01-.003-.079l2.02-4.053a.08.08 0 01.078-.045.082.082 0 01.056.027.08.08 0 01.012.09l-2.02 4.053a.081.081 0 01-.073.045z" fill="#000"/><g opacity=".129"><mask id="c" style="mask-type:luminance" maskUnits="userSpaceOnUse" x="9" y="5" width="25" height="17"><path d="M33.42 5.198H9.974v16.576H33.42V5.198z" fill="#fff"/></mask><g mask="url(#c)"><path d="M33.136 8.491a5.104 5.104 0 00-.324-.928c.016.022.057.15.048.108-.12-.356-.233-.716-.381-1.062.117.279-.122-.3-.186-.412a4.295 4.295 0 00-.481-.774.456.456 0 00-.71-.092c-.262.275-.084.554.1.8.116.163.204.346.258.539.152.5.254.856.326 1.133a.399.399 0 00-.063.081c-.106.572-.18 1.15-.221 1.729-.014.077-.014.094-.011.081-.089.606-.219 1.247-.323 2.012a14.595 14.595 0 01-.749 2.653 5.779 5.779 0 01-1.931 2.432 13.41 13.41 0 01-3.2 1.5c-1.311.373-2.66.602-4.02.684-1.653.163-3.307.3-4.957.5-1.148.1-2.072.127-2.943.28a18.8 18.8 0 00-1.027.2l-.029.011-.487.019a.6.6 0 00-.508.263l-.362-.038a1 1 0 00-.586.017.651.651 0 00.251 1.248c2.245.26 4.507.35 6.766.272 1.16-.041 2.307-.217 3.459-.343a48.19 48.19 0 006.4-.94 7.16 7.16 0 004.686-2.918c1.4-2.8 1.823-5.987 1.205-9.055zm-2.248 8.254a3.106 3.106 0 01-.773.984.54.54 0 00-.3-.352 7.278 7.278 0 001.79-2.486c-.023.086-.046.171-.071.258a5.642 5.642 0 01-.643 1.593" fill="#000"/></g></g></g></g></svg>