<svg width="32" height="32" fill="none" xmlns="http://www.w3.org/2000/svg"><path fill-rule="evenodd" clip-rule="evenodd" d="M0 16.006a15.971 15.971 0 1131.942 0 15.971 15.971 0 01-31.942 0zm15.948-4.245a3.827 3.827 0 012.672 1.031l1.95-1.907a6.634 6.634 0 00-4.623-1.8 6.92 6.92 0 00-6.174 10.027l2.242-1.738-2.235 1.738a6.892 6.892 0 006.166 3.815 6.58 6.58 0 004.577-1.676 6.773 6.773 0 002.058-5.09 5.909 5.909 0 00-.146-1.416h-6.487v2.568h3.809a3.384 3.384 0 01-1.413 2.246 4.088 4.088 0 01-2.4.692 4.162 4.162 0 01-3.932-2.876 4.266 4.266 0 01-.23-1.369c.003-.465.078-.927.223-1.369a4.178 4.178 0 013.943-2.876z" fill="#0086D5"/></svg>