<svg width="32" height="32" fill="none" xmlns="http://www.w3.org/2000/svg"><path fill-rule="evenodd" clip-rule="evenodd" d="M15.971.035a15.97 15.97 0 100 31.942 15.97 15.97 0 000-31.942zm-3.512 7.5c.909-.04 1.2-.05 3.512-.05 2.315 0 2.6.01 3.512.05a6.282 6.282 0 012.069.4 4.354 4.354 0 012.492 2.492c.248.662.384 1.36.4 2.067.041.91.051 1.2.051 3.512 0 2.312-.011 2.6-.051 3.512a6.309 6.309 0 01-.4 2.068 4.363 4.363 0 01-2.491 2.492 6.25 6.25 0 01-2.069.4c-.908.041-1.2.051-3.511.051s-2.6-.01-3.512-.05a6.242 6.242 0 01-2.068-.4 4.357 4.357 0 01-2.491-2.493 6.265 6.265 0 01-.4-2.067c-.041-.909-.051-1.2-.051-3.512 0-2.312.011-2.6.051-3.512.015-.707.15-1.406.4-2.068a4.356 4.356 0 012.492-2.49 6.243 6.243 0 012.065-.402z" fill="#0086D5"/><path fill-rule="evenodd" clip-rule="evenodd" d="M15.208 9.024h.764c2.275 0 2.544.008 3.443.05.54.006 1.075.105 1.581.292a2.82 2.82 0 011.616 1.617 4.69 4.69 0 01.293 1.581c.041.9.049 1.167.049 3.441s-.009 2.543-.049 3.441a4.713 4.713 0 01-.293 1.581 2.827 2.827 0 01-1.616 1.616 4.699 4.699 0 01-1.581.293c-.9.041-1.168.05-3.443.05-2.275 0-2.544-.01-3.442-.05a4.717 4.717 0 01-1.582-.294 2.821 2.821 0 01-1.617-1.616 4.713 4.713 0 01-.293-1.58c-.041-.9-.049-1.169-.049-3.444s.008-2.543.049-3.44a4.7 4.7 0 01.293-1.582 2.824 2.824 0 011.617-1.617 4.7 4.7 0 011.582-.293c.786-.036 1.09-.047 2.678-.048v.002zm5.311 1.414a1.022 1.022 0 100 2.044 1.022 1.022 0 000-2.044zm-8.921 5.57a4.374 4.374 0 118.748 0 4.374 4.374 0 01-8.748 0z" fill="#0086D5"/><path d="M15.972 13.167a2.84 2.84 0 110 5.68 2.84 2.84 0 010-5.68z" fill="#0086D5"/></svg>