<svg width="32" height="32" fill="none" xmlns="http://www.w3.org/2000/svg"><path fill-rule="evenodd" clip-rule="evenodd" d="M15.971.035a15.97 15.97 0 100 31.942 15.97 15.97 0 000-31.942zm-8.3 13.228h3.62v10.872h-3.62V13.263zM11.529 9.9a2.043 2.043 0 10-2.072 1.88h.023a1.889 1.889 0 002.045-1.88h.004zm8.647 3.108c2.382 0 4.167 1.555 4.167 4.9v6.228h-3.62v-5.818c0-1.46-.524-2.459-1.833-2.459a1.981 1.981 0 00-1.857 1.322 2.47 2.47 0 00-.119.882v6.073h-3.62s.048-9.854 0-10.875h3.62v1.541a3.593 3.593 0 013.259-1.793h.003z" fill="#0086D5"/></svg>