<svg width="40" height="37" fill="none" xmlns="http://www.w3.org/2000/svg"><mask id="a" style="mask-type:luminance" maskUnits="userSpaceOnUse" x="0" y="0" width="40" height="37"><path d="M39.966 0H0v36.647h39.966V0z" fill="#fff"/></mask><g mask="url(#a)"><mask id="b" style="mask-type:luminance" maskUnits="userSpaceOnUse" x="0" y="0" width="40" height="37"><path d="M39.966 0H0v36.647h39.966V0z" fill="#fff"/></mask><g mask="url(#b)"><path d="M19.744.316a5.163 5.163 0 00-5.4 3.368 6.2 6.2 0 001.562 6.521 5.724 5.724 0 006.332.85 6.064 6.064 0 003.232-4.56 5.387 5.387 0 00-2.212-5.112A8.92 8.92 0 0019.744.316z" fill="#fff"/><path d="M19.723 11.915a5.95 5.95 0 01-3.995-1.506 6.468 6.468 0 01-1.634-6.816 5.466 5.466 0 015.692-3.54 9.106 9.106 0 013.623 1.108 5.675 5.675 0 012.334 5.372 6.374 6.374 0 01-3.379 4.767 5.89 5.89 0 01-2.64.614M19.098.54a5 5 0 00-4.5 3.243 5.91 5.91 0 001.492 6.227 5.473 5.473 0 006.028.809 5.82 5.82 0 003.085-4.353 5.12 5.12 0 00-2.09-4.849 8.685 8.685 0 00-3.411-1.03 3.881 3.881 0 00-.6-.047" fill="#000"/><path d="M33.923 24.767a5.163 5.163 0 00-5.4 3.368 6.2 6.2 0 001.567 6.519 5.723 5.723 0 006.332.85 6.063 6.063 0 003.232-4.561 5.386 5.386 0 00-2.212-5.111 8.925 8.925 0 00-3.518-1.068" fill="#fff"/><path d="M33.902 36.361a5.951 5.951 0 01-3.995-1.506 6.469 6.469 0 01-1.633-6.817 5.467 5.467 0 015.691-3.54 9.108 9.108 0 013.623 1.108 5.676 5.676 0 012.334 5.372 6.374 6.374 0 01-3.379 4.768 5.884 5.884 0 01-2.64.614m-.625-11.375a5 5 0 00-4.5 3.243 5.91 5.91 0 001.491 6.227 5.473 5.473 0 006.028.809 5.82 5.82 0 003.085-4.353 5.12 5.12 0 00-2.09-4.849 8.68 8.68 0 00-3.411-1.024 3.901 3.901 0 00-.6-.047" fill="#000"/><path d="M6.015 25.052a5.163 5.163 0 00-5.4 3.368 6.2 6.2 0 001.562 6.522 5.723 5.723 0 006.332.85 6.063 6.063 0 003.24-4.559 5.387 5.387 0 00-2.212-5.111 8.926 8.926 0 00-3.522-1.07z" fill="#fff"/><path d="M6 36.647a5.951 5.951 0 01-4-1.506 6.47 6.47 0 01-1.63-6.816 5.466 5.466 0 015.691-3.54 9.112 9.112 0 013.623 1.108 5.675 5.675 0 012.334 5.372 6.375 6.375 0 01-3.379 4.768A5.887 5.887 0 016 36.647zm-.627-11.375a5 5 0 00-4.497 3.245 5.909 5.909 0 001.491 6.227 5.472 5.472 0 006.028.809A5.82 5.82 0 0011.48 31.2a5.12 5.12 0 00-2.09-4.849 8.684 8.684 0 00-3.414-1.034 3.876 3.876 0 00-.6-.047m2.7-1.73a.27.27 0 01-.233-.406l6.55-11.264a.27.27 0 11.467.272L8.31 23.406a.27.27 0 01-.234.134zm23.747-.515a.269.269 0 01-.213-.1 193.317 193.317 0 01-7.334-10.075.27.27 0 11.447-.3 193.24 193.24 0 007.313 10.047.27.27 0 01-.213.436m-18.498 9.73a.27.27 0 010-.541l12.58-.055a.27.27 0 010 .541l-12.58.055z" fill="#000"/><path d="M1.656 29.363a.092.092 0 01-.047-.013.091.091 0 01-.03-.124 21.934 21.934 0 012.365-3.158.09.09 0 01.149.022.09.09 0 01-.015.099c-.874.971-1.66 2.02-2.346 3.132a.09.09 0 01-.077.043m.064 2.421a.093.093 0 01-.054-.018.09.09 0 01-.017-.126l4.278-5.665a.09.09 0 11.144.109L1.791 31.75a.09.09 0 01-.032.026.09.09 0 01-.04.009zm.807 1.719a.088.088 0 01-.052-.017.09.09 0 01-.021-.125l5-6.974a.09.09 0 01.097-.052.092.092 0 01.063.043.09.09 0 01-.014.11l-5 6.973a.09.09 0 01-.073.038m1.339 1.551a.089.089 0 01-.088-.11.09.09 0 01.015-.032L8.8 27.332a.09.09 0 11.15.1l-5.008 7.577a.088.088 0 01-.075.04m2.071.095a.089.089 0 01-.08-.047.09.09 0 01.005-.093l4.145-6.327a.092.092 0 01.093-.039.092.092 0 01.058.038.09.09 0 010 .101l-4.145 6.328a.09.09 0 01-.075.041m2.271-.584a.09.09 0 01-.088-.074.09.09 0 01.014-.067l2.561-3.719a.09.09 0 01.149.1l-2.562 3.717a.09.09 0 01-.074.039" fill="#000"/><g opacity=".129"><mask id="c" style="mask-type:luminance" maskUnits="userSpaceOnUse" x="15" y="2" width="11" height="10"><path d="M25.561 2.254h-9.582v9.357h9.582V2.254z" fill="#fff"/></mask><g mask="url(#c)"><path d="M25.506 5.698c.066-.438.165-1.581-.334-1.741a10.295 10.295 0 00-.149-.739 1.72 1.72 0 00-.205-.567.754.754 0 00-.054-.206.405.405 0 00-.735.1c-.06.277-.063.562-.008.84a1 1 0 00.132.352c.052.392.11.655.126 1.01a9.226 9.226 0 01-.227 2.551l-.035.053c-.284.39-.604.75-.957 1.079a4.376 4.376 0 01-3.388 1.425 8.2 8.2 0 01-2.966-.591.576.576 0 10-.306 1.111c.122.047.245.093.368.138a.461.461 0 00.242.395 5.415 5.415 0 006.417-.746 7.51 7.51 0 00.963-1.212 5.57 5.57 0 00.281-.583c.116-.175.223-.355.321-.541a4.5 4.5 0 00.432-1.5c.034-.156.12-.862.086-.623" fill="#000"/></g></g><g opacity=".129"><mask id="d" style="mask-type:luminance" maskUnits="userSpaceOnUse" x="29" y="29" width="11" height="7"><path d="M39.557 29.037h-9.722v6.862h9.722v-6.862z" fill="#fff"/></mask><g mask="url(#d)"><path d="M39.542 29.44a.392.392 0 00-.729-.213c-.17.529-.045 1.01-.189 1.532-.08.306-.177.608-.288.905a7.632 7.632 0 01-.1.172 7.472 7.472 0 01-.358.52 4.157 4.157 0 01-.709.724 24.9 24.9 0 01-2.337 1.413 3.836 3.836 0 01-3.428-.361c-.34-.186-.334-.346-.835-.67a.529.529 0 00-.577.858 5.058 5.058 0 002 1.324 5.62 5.62 0 002.421.193c.249-.054.492-.133.725-.236a.429.429 0 00.2.24c.332.17.711-.082 1.018-.213a5.787 5.787 0 002.15-2.145.526.526 0 00.034-.072c.043-.072.175-.4.238-.517l.024-.051a4.88 4.88 0 00.633-1.456c.074-.331.113-.669.116-1.008.006-.094.012-.19.012-.284a5.28 5.28 0 00-.01-.656" fill="#000"/></g></g><g opacity=".129"><mask id="e" style="mask-type:luminance" maskUnits="userSpaceOnUse" x="1" y="29" width="11" height="8"><path d="M11.584 29.656H1.067v6.501h10.517v-6.501z" fill="#fff"/></mask><g mask="url(#e)"><path d="M11.525 30.192c-.031-.179-.056-.387-.233-.482a.399.399 0 00-.548.144.414.414 0 00-.04.308c0 .006 0 .007 0 0 .026.141.045.284.057.427a2.83 2.83 0 01-.269 1.406c-.056.13 0 0 .02-.045a5.873 5.873 0 01-.977 1.542 4.99 4.99 0 01-1.909 1.357 5.454 5.454 0 01-3.87-.475 4.44 4.44 0 01-1.283-.991c-.253-.217-.457-.626-.737-.768a.483.483 0 00-.528.783 6.531 6.531 0 002.713 2.168 5.947 5.947 0 003.517.5 5.889 5.889 0 003.842-3.531 4.39 4.39 0 00.275-1.234v.009a3.39 3.39 0 00-.024-1.119" fill="#000"/></g></g></g></g></svg>