<svg width="103" height="25" fill="none" xmlns="http://www.w3.org/2000/svg"><path d="M10.8 9.203a3.376 3.376 0 104.5 4.5m-.643-8.36a7.305 7.305 0 104.5 4.5m-1.525-7.475a11.244 11.244 0 104.5 4.5M23.5 1L12.25 12.25" stroke="#0086D3" stroke-width="1.7" stroke-linecap="round" stroke-linejoin="round"/><path d="M43.334 3.118v2.616h-5.112V19.75h-3.048V5.734h-5.112V3.118h13.272zm5.618 14.592c.683.017 1.366-.032 2.04-.144V14.35a6.477 6.477 0 00-1.708-.216c-.33 0-.658.025-.984.072a3.18 3.18 0 00-.888.264 1.6 1.6 0 00-.624.552c-.17.255-.253.558-.24.864a1.567 1.567 0 00.648 1.44 3.43 3.43 0 001.756.384zm-.24-10.824a7.1 7.1 0 012.424.36A3.772 3.772 0 0152.7 8.25a3.6 3.6 0 01.84 1.584c.181.656.269 1.335.26 2.016v7.608c-.448.096-1.128.208-2.04.336a19.36 19.36 0 01-3.048.216 9.188 9.188 0 01-2.064-.216 4.46 4.46 0 01-1.608-.7 3.437 3.437 0 01-1.032-1.244 4.454 4.454 0 01-.36-1.9c-.02-.633.12-1.26.408-1.824.28-.488.676-.9 1.152-1.2a4.628 4.628 0 011.656-.672 9.048 9.048 0 011.992-.216c.337.001.674.025 1.008.072.38.037.757.1 1.128.192v-.48a3.759 3.759 0 00-.12-.96 2.034 2.034 0 00-1.224-1.344 3.329 3.329 0 00-1.224-.192 10.968 10.968 0 00-1.848.144 8.123 8.123 0 00-1.368.336l-.36-2.352a11.429 11.429 0 011.608-.384c.745-.129 1.5-.19 2.256-.184zM60.5 17.662a3.976 3.976 0 001.68-.264 1.007 1.007 0 00.528-.96 1.222 1.222 0 00-.576-1.032 7.96 7.96 0 00-1.848-.888 18.474 18.474 0 01-1.464-.6 5.372 5.372 0 01-1.128-.768 3.286 3.286 0 01-.768-1.032 3.876 3.876 0 01-.264-1.512 3.238 3.238 0 011.272-2.712 5.417 5.417 0 013.456-1.008c.71-.003 1.418.07 2.112.216.514.087 1.02.215 1.512.384l-.528 2.352a6.55 6.55 0 00-1.224-.388 6.955 6.955 0 00-1.728-.192 2.911 2.911 0 00-1.44.312.96.96 0 00-.552.912c-.002.189.032.376.1.552.094.177.225.333.384.456.222.155.456.291.7.408.288.128.64.264 1.056.408.6.217 1.185.474 1.752.768.438.21.836.494 1.176.84.314.292.553.654.7 1.056.154.464.227.951.216 1.44a3.122 3.122 0 01-1.356 2.74 6.639 6.639 0 01-3.792.912 10.001 10.001 0 01-2.664-.288c-.48-.116-.953-.26-1.416-.432l.5-2.424a13.35 13.35 0 001.536.5c.676.17 1.371.252 2.068.244zm10.729-5.568L72.4 10.87l1.224-1.32c.4-.448.776-.872 1.128-1.272.368-.416.68-.776.936-1.08h3.432c-.8.896-1.648 1.824-2.544 2.784-.88.96-1.768 1.896-2.664 2.808.537.453 1.044.94 1.517 1.46.528.56 1.04 1.16 1.536 1.8.496.64.96 1.28 1.392 1.92.391.574.752 1.168 1.08 1.78h-3.36a21.048 21.048 0 00-1.008-1.56 18.716 18.716 0 00-1.2-1.584 23.116 23.116 0 00-1.32-1.44c-.407-.428-.848-.82-1.32-1.176v5.76h-2.9V1.606l2.9-.48v10.968zm9.056 1.44a8.065 8.065 0 01.48-2.9 6.108 6.108 0 011.32-2.064 5.2 5.2 0 011.872-1.248 5.656 5.656 0 012.16-.432 5.133 5.133 0 014.032 1.608 6.92 6.92 0 011.464 4.8c0 .16-.008.344-.024.552 0 .192-.008.368-.024.528h-8.28a3.378 3.378 0 001.056 2.352 4.148 4.148 0 002.76.816 8.872 8.872 0 001.92-.192c.475-.093.942-.23 1.392-.408l.384 2.376a5.36 5.36 0 01-.672.264c-.316.09-.636.162-.96.216a11.102 11.102 0 01-2.424.264 7.872 7.872 0 01-2.88-.48 5.554 5.554 0 01-2.016-1.368 5.737 5.737 0 01-1.176-2.068 8.544 8.544 0 01-.384-2.616zm8.424-1.3a3.7 3.7 0 00-.168-1.128 2.509 2.509 0 00-.5-.936 2.026 2.026 0 00-.792-.624 2.344 2.344 0 00-1.1-.24 2.5 2.5 0 00-1.176.264c-.33.155-.623.375-.864.648-.228.28-.407.596-.528.936-.127.35-.216.711-.264 1.08h5.392zm13.135-2.424a7.888 7.888 0 00-1.008-.24 6.57 6.57 0 00-1.464-.144 6.042 6.042 0 00-1.032.1c-.251.04-.5.097-.744.168V19.75h-2.9V7.798a15.06 15.06 0 012.088-.576c.922-.2 1.864-.296 2.808-.288.225.002.449.018.672.048.258.018.514.05.768.1.251.031.5.08.744.144.195.036.387.085.576.144l-.508 2.44z" fill="#303030"/></svg>