<svg width="31" height="41" fill="none" xmlns="http://www.w3.org/2000/svg"><mask id="a" style="mask-type:luminance" maskUnits="userSpaceOnUse" x="0" y="0" width="31" height="41"><path d="M30.676.097H.325v40.806h30.351V.097z" fill="#fff"/></mask><g mask="url(#a)"><mask id="b" style="mask-type:luminance" maskUnits="userSpaceOnUse" x="0" y="0" width="31" height="41"><path d="M30.676.097H.325v40.806h30.351V.097z" fill="#fff"/></mask><g mask="url(#b)"><path d="M30.081 5.276a439.66 439.66 0 00.331 35.364c-9.951-.322-19.817-.42-29.671-.158C.531 28.547.6 16.798.597 4.917c9.583 0 19.165 0 29.484.359z" fill="#fff"/><path d="M30.412 40.904h-.009c-10.794-.35-20.494-.4-29.655-.158a.249.249 0 01-.19-.073.263.263 0 01-.081-.186C.311 30.996.325 21.448.325 12.21V4.916a.264.264 0 01.273-.268c9.425 0 19.17 0 29.493.359a.264.264 0 01.254.272c-.362 11.729-.25 23.62.331 35.343a.263.263 0 01-.264.277m-18.051-.837c5.631 0 11.518.1 17.773.3a442.292 442.292 0 01-.326-34.836c-10.12-.35-19.69-.351-28.948-.35v7.03c-.009 9.147-.018 18.6.143 28 3.687-.1 7.462-.143 11.361-.143" fill="#000"/><path d="M27.243 7.093a251.14 251.14 0 00.4 30.783c-8.079-.136-16.126-.274-24.152.032-.089-10.4-.316-20.6-.494-30.846 8.4.083 16.5.1 24.249.031" fill="#fff"/><path d="M3.488 38.171a.265.265 0 01-.264-.262c-.066-7.664-.209-15.34-.347-22.763-.05-2.693-.099-5.387-.147-8.081a.264.264 0 01.266-.269c9.087.09 17.018.1 24.244.031a.265.265 0 01.266.279 247.815 247.815 0 00.4 30.75.264.264 0 01-.272.282h-.113c-7.887-.133-16.043-.271-24.025.034h-.01M3.263 7.328c.045 2.605.093 5.208.142 7.809.137 7.336.278 14.92.345 22.5 7.85-.29 15.857-.158 23.609-.027a248.328 248.328 0 01-.4-30.247c-7.082.066-14.841.055-23.7-.031" fill="#000"/><path d="M22.877 4.443c-.985-.048-3.942-.079-4.943-.1-.459-.435.05-2.6-.754-3.4a2.413 2.413 0 00-1.7-.582 2.5 2.5 0 00-1.733.516c-.849.819-.638 3.285-.817 3.458-1.064.014-4.187.036-5.254.062 0 3.253 1.3 3.808 4.424 3.905 4.857.152 7.852.133 9.087-.383a2.83 2.83 0 001.69-3.476zm-8.639-.12c0-.69-.172-2.239 1.282-2.239 1.017 0 .8 2.077.888 2.24-.72-.005-1.444-.005-2.17 0" fill="#fff"/><path d="M16.347 8.65c-1.219 0-2.635-.032-4.251-.082-3.236-.1-4.68-.727-4.68-4.169a.264.264 0 01.257-.264c.715-.018 2.353-.034 3.669-.046l1.39-.014c.014-.126.026-.315.036-.477.057-.907.143-2.277.8-2.909a2.771 2.771 0 011.909-.592 2.658 2.658 0 011.889.66c.465.672.678 1.487.6 2.3-.008.345.027.69.105 1.025l1.049.015c1.287.019 3.049.045 3.769.08a.264.264 0 01.247.218 3.089 3.089 0 01-1.844 3.767c-1.61.43-3.281.594-4.945.486m-8.4-3.993c.06 2.777 1.13 3.289 4.166 3.384 4.778.149 7.779.138 8.976-.363a2.5 2.5 0 001.56-2.98c-.806-.03-2.368-.053-3.537-.071l-1.184-.018a.265.265 0 01-.176-.073c-.276-.261-.295-.789-.319-1.458a3.225 3.225 0 00-.441-1.948 2.131 2.131 0 00-1.5-.5 2.26 2.26 0 00-1.558.439 4.6 4.6 0 00-.638 2.563c-.035.561-.049.77-.179.9a.265.265 0 01-.18.074l-1.59.017c-1.173.011-2.6.025-3.4.04m8.46-.069c-.708-.006-1.437-.006-2.166 0a.255.255 0 01-.188-.077.265.265 0 01-.078-.187v-.2a2.628 2.628 0 01.472-1.906 1.445 1.445 0 011.077-.4c1.042 0 1.094 1.443 1.119 2.137 0 .1.008.227.015.272a.264.264 0 01-.246.359m-1.141-.535h.845v-.082c-.019-.528-.059-1.628-.591-1.628a.929.929 0 00-.7.242 2.16 2.16 0 00-.322 1.467h.772m-7.512 11.87h-.005a.265.265 0 01-.232-.148 9.62 9.62 0 00-1.082-1.725.263.263 0 11.415-.326c.34.431.643.89.908 1.37l1.187-2.209a.264.264 0 01.465.25l-1.423 2.649a.264.264 0 01-.233.139zm0 6.959h-.005a.265.265 0 01-.232-.148 9.625 9.625 0 00-1.081-1.724.264.264 0 01.415-.326c.34.431.643.89.908 1.37l1.187-2.209a.264.264 0 01.465.25l-1.423 2.65a.264.264 0 01-.233.138m-.522 6.958h-.005a.265.265 0 01-.232-.148 9.639 9.639 0 00-1.081-1.725.264.264 0 11.415-.326c.339.431.642.89.907 1.37l1.187-2.209a.264.264 0 01.465.25l-1.423 2.65a.264.264 0 01-.233.138zm6.779-13.804c-.687 0-1.373-.003-2.058-.009a.264.264 0 010-.528c4.1.037 8.251-.037 12.343-.219a.258.258 0 01.252.152.264.264 0 01-.229.376c-3.418.151-6.878.228-10.313.228m.005 6.825c-.687 0-1.373-.003-2.058-.009a.264.264 0 010-.528c4.1.037 8.251-.037 12.343-.219a.264.264 0 01.023.527c-3.418.152-6.878.23-10.313.23m.188 6.825c-.687 0-1.373-.003-2.058-.009a.264.264 0 010-.528c4.1.037 8.251-.037 12.344-.219h.012a.264.264 0 11.012.528c-3.418.152-6.878.229-10.314.229" fill="#000"/><g opacity=".129"><mask id="c" style="mask-type:luminance" maskUnits="userSpaceOnUse" x="8" y="5" width="16" height="5"><path d="M23.452 5.621H8.592v4.026h14.86V5.621z" fill="#fff"/></mask><g mask="url(#c)"><path d="M23.445 6a.424.424 0 00-.313-.363c-.351-.09-.557.206-.585.52-.006.079-.114.379-.1.36a2.294 2.294 0 01-.12.253c-.025.07-.189.325-.237.4a1.3 1.3 0 01-.142.143 4.089 4.089 0 01-.529.34c-.262.094-.541.128-.8.215a5.62 5.62 0 01-.7.216c-.342.014-.68.072-1.019.108-.424.044-.85.06-1.276.05-.911 0-1.822.105-2.735.1-.95-.05-1.9-.11-2.849-.162a5.857 5.857 0 01-2.1-.4c.069.028.123.056.015.007l-.022-.01-.029-.011.027.01a3.832 3.832 0 00-.75-.34.516.516 0 00-.329.954c.756.486 1.59.837 2.465 1.039.817.108 1.64.164 2.464.166.661.048 1.325.057 1.987.025a14.711 14.711 0 001.953-.137c.2-.011 1.386-.162 1.5-.2.404-.042.804-.11 1.2-.2.491-.173.994-.316 1.48-.5.215-.116.416-.254.6-.414l-.1.08c.233-.165.425-.381.559-.633.206-.391.357-.809.449-1.241a1.17 1.17 0 00.05-.387" fill="#000"/></g></g><g opacity=".129"><mask id="d" style="mask-type:luminance" maskUnits="userSpaceOnUse" x="3" y="7" width="26" height="32"><path d="M28.456 7.225H3.173v31.714h25.283V7.225z" fill="#fff"/></mask><g mask="url(#d)"><path d="M28.263 31.526c-.079-1.062-.054-2.129-.145-3.191-.1-1.55-.268-3.1-.332-4.65.02-.85-.163-1.686-.156-2.537-.04-1.3.056-2.6.093-3.893.025-1.78-.027-3.562.135-5.337-.01-1 .043-2 .155-2.994.023-.34.01-.681.035-1.02 0-.034 0-.067.006-.1a.424.424 0 000-.154.482.482 0 00-.356-.413c-.933-.162-.645 1.326-.776 1.994-.154.978-.09 1.967-.151 2.951-.161 1.834 0 3.677-.033 5.514-.009 1.276-.06 2.552-.057 3.828.009.634.127 1.259.134 1.892.022 1.27.124 2.536.157 3.806a85.04 85.04 0 01.154 5.05c.095 1.548.162 3.1.122 4.649.002.241-.037.481-.116.709a11.09 11.09 0 00-1.679-.056c-1.416 0-2.831-.031-4.247-.012-1.049.015-2.1.111-3.145.12-1.587.008-3.175.015-4.762-.014a15.46 15.46 0 00-1.969-.044c-1.553.084-3.111.008-4.664-.037a14.183 14.183 0 00-2.238-.011 2.19 2.19 0 01-.511-.066.592.592 0 10-.315 1.142c1.005.13 2.017.202 3.03.217a93.05 93.05 0 003.975.069c.89-.042 1.779-.06 2.67-.025 2.839.051 5.678.023 8.512-.15 1.6-.1 3.2.014 4.795-.076.365-.027.732.056 1.094 0a.556.556 0 00.4-.456.534.534 0 00.106-.209c.182-.75.268-1.52.257-2.293a38.42 38.42 0 00-.179-4.2" fill="#000"/></g></g></g></g></svg>