<svg width="150" height="35" fill="none" xmlns="http://www.w3.org/2000/svg"><path d="M15.343 13.034a4.941 4.941 0 106.588 6.588m-.937-12.239a10.695 10.695 0 106.588 6.588M25.349 3.028a16.46 16.46 0 106.588 6.588m2.003-8.591l-16.47 16.47" stroke="#0086D3" stroke-width="1.7" stroke-linecap="round" stroke-linejoin="round"/><path d="M62.977 4.126v3.83h-7.484v20.52h-4.462V7.955h-7.484v-3.83h19.43zm8.224 21.363c1 .024 2-.046 2.987-.21V20.57a9.506 9.506 0 00-2.495-.316c-.482.001-.964.036-1.441.105a4.66 4.66 0 00-1.3.386c-.37.184-.686.463-.914.808-.248.374-.37.817-.351 1.265a2.294 2.294 0 00.949 2.108c.79.412 1.675.606 2.565.563zM70.85 9.643a10.4 10.4 0 013.549.527c.873.293 1.659.8 2.286 1.475a5.274 5.274 0 011.23 2.32c.267.96.397 1.953.386 2.95v11.14c-.656.14-1.652.304-2.987.491a28.32 28.32 0 01-4.462.316c-1.016.01-2.03-.097-3.022-.316a6.525 6.525 0 01-2.354-1.019 5.03 5.03 0 01-1.511-1.827 6.519 6.519 0 01-.527-2.776 5.487 5.487 0 01.6-2.67 5.05 5.05 0 011.687-1.757 6.778 6.778 0 012.424-.984 13.252 13.252 0 012.916-.316c.494.002.987.037 1.476.105a11.61 11.61 0 011.651.281v-.7a5.5 5.5 0 00-.176-1.405 2.982 2.982 0 00-1.792-1.968 4.873 4.873 0 00-1.792-.28 16.06 16.06 0 00-2.705.21c-.68.106-1.349.27-2 .492L65.2 10.49c.77-.244 1.557-.432 2.354-.562a18.46 18.46 0 013.296-.284zM88.108 25.42a5.818 5.818 0 002.46-.386 1.474 1.474 0 00.773-1.405 1.791 1.791 0 00-.843-1.51 11.662 11.662 0 00-2.705-1.3 27.383 27.383 0 01-2.143-.879 7.857 7.857 0 01-1.651-1.124 4.807 4.807 0 01-1.124-1.51 5.674 5.674 0 01-.39-2.216 4.742 4.742 0 011.862-3.97 7.931 7.931 0 015.06-1.476 14.722 14.722 0 013.092.316c.752.127 1.493.315 2.214.562l-.773 3.443a9.594 9.594 0 00-1.792-.562 10.163 10.163 0 00-2.53-.28 4.263 4.263 0 00-2.108.456 1.406 1.406 0 00-.808 1.335c-.005.276.043.55.141.808.138.26.33.488.562.668.323.227.664.428 1.019.6.421.188.937.387 1.546.6.879.318 1.736.694 2.565 1.124a6.12 6.12 0 011.722 1.23c.457.428.806.958 1.019 1.546.225.68.332 1.392.316 2.108a4.573 4.573 0 01-1.968 4.005 9.718 9.718 0 01-5.551 1.332 14.632 14.632 0 01-3.9-.422c-.703-.17-1.395-.38-2.073-.632l.738-3.549c.734.291 1.485.538 2.249.738.988.245 2.003.363 3.021.35zm15.707-8.152c.539-.562 1.113-1.16 1.722-1.792l1.792-1.932c.585-.656 1.136-1.276 1.651-1.862a95.5 95.5 0 001.37-1.58h5.024a251.227 251.227 0 01-3.724 4.075 163.029 163.029 0 01-3.9 4.111 23.231 23.231 0 012.213 2.147c.773.82 1.522 1.698 2.249 2.635a52.015 52.015 0 012.038 2.811 28.72 28.72 0 011.581 2.6h-4.919a30.446 30.446 0 00-1.476-2.284 27.45 27.45 0 00-1.757-2.319 34.395 34.395 0 00-1.932-2.108 15.785 15.785 0 00-1.932-1.722v8.433h-4.252V1.913l4.251-.7.001 16.054zm13.258 2.108a11.816 11.816 0 01.7-4.25 8.947 8.947 0 011.932-3.023 7.611 7.611 0 012.741-1.827 8.28 8.28 0 013.162-.632 7.513 7.513 0 015.9 2.354c1.429 1.57 2.143 3.912 2.143 7.027 0 .234-.012.503-.035.808 0 .281-.012.54-.035.773h-12.116a4.947 4.947 0 001.546 3.443 6.072 6.072 0 004.041 1.195c.944.009 1.887-.085 2.811-.28a11.607 11.607 0 002.038-.6l.562 3.477c-.319.15-.648.28-.984.386a12.8 12.8 0 01-1.405.316 16.316 16.316 0 01-3.549.386 11.516 11.516 0 01-4.216-.7 8.129 8.129 0 01-2.951-2 8.394 8.394 0 01-1.722-3.022 12.53 12.53 0 01-.563-3.83zm12.333-1.9a5.405 5.405 0 00-.246-1.65 3.67 3.67 0 00-.738-1.37 2.967 2.967 0 00-1.159-.915 3.434 3.434 0 00-1.616-.35 3.66 3.66 0 00-1.722.385c-.482.227-.912.55-1.265.95a4.592 4.592 0 00-.773 1.37 7.418 7.418 0 00-.386 1.58h7.905zm19.23-3.549a11.51 11.51 0 00-1.476-.35 9.628 9.628 0 00-2.144-.212 8.853 8.853 0 00-1.511.141 9.04 9.04 0 00-1.089.246v14.724h-4.251v-17.5a22.035 22.035 0 013.057-.843 18.632 18.632 0 014.111-.422c.329.003.658.027.984.07a9.23 9.23 0 011.124.141c.367.046.731.116 1.089.211.285.054.566.124.843.211l-.737 3.583z" fill="#303030"/></svg>