<svg width="41" height="41" fill="none" xmlns="http://www.w3.org/2000/svg"><mask id="a" style="mask-type:luminance" maskUnits="userSpaceOnUse" x="0" y="0" width="41" height="41"><path d="M40.674.82H.325v39.36h40.349V.82z" fill="#fff"/></mask><g mask="url(#a)"><mask id="b" style="mask-type:luminance" maskUnits="userSpaceOnUse" x="0" y="0" width="41" height="41"><path d="M40.674.82H.325v39.36h40.349V.82z" fill="#fff"/></mask><g mask="url(#b)"><path d="M.614 20.5A19.644 19.644 0 0120.5 1.11 19.644 19.644 0 0140.386 20.5 19.644 19.644 0 0120.5 39.89 19.644 19.644 0 01.614 20.502z" fill="#fff"/><path d="M20.5 40.18A19.954 19.954 0 01.325 20.5 19.954 19.954 0 0120.5.82 19.955 19.955 0 0140.674 20.5 19.954 19.954 0 0120.5 40.18zm0-38.783a19.377 19.377 0 00-19.6 19.1 19.377 19.377 0 0019.6 19.1 19.377 19.377 0 0019.6-19.1 19.377 19.377 0 00-19.6-19.1z" fill="#000"/><path d="M3.085 20.5A16.962 16.962 0 0120.178 3.676a16.962 16.962 0 0117.1 16.824 16.962 16.962 0 01-17.1 16.823 16.963 16.963 0 01-17.1-16.824" fill="#fff"/><path d="M20.183 37.612A17.27 17.27 0 012.797 20.5a17.388 17.388 0 0134.772 0 17.27 17.27 0 01-17.386 17.112zm0-33.647A16.692 16.692 0 003.374 20.5a16.811 16.811 0 0033.618 0A16.693 16.693 0 0020.183 3.965z" fill="#000"/><path d="M20.183 20.788a.288.288 0 01-.261-.166L14.28 8.608a.289.289 0 01.522-.246l5.639 12.015a.287.287 0 01-.122.376.29.29 0 01-.139.035" fill="#000"/><path d="M19.097 20.869l7.656 4.641-1.135 1.985 5.54-.858-2.275-4.81-1.094 1.534-7.834-4.153-.858 1.661z" fill="#fff"/><path d="M25.617 27.784a.287.287 0 01-.25-.432l1-1.741-7.415-4.5a.288.288 0 01-.107-.379l.86-1.661a.287.287 0 01.391-.122l7.611 4.034.948-1.328a.288.288 0 01.5.044l2.272 4.809a.288.288 0 01-.217.408l-5.54.859a.323.323 0 01-.044 0m-6.14-7.021l7.425 4.5a.288.288 0 01.1.39l-.838 1.465 4.566-.708-1.9-4.015-.809 1.133a.288.288 0 01-.37.087l-7.581-4.001-.593 1.149z" fill="#000"/><path d="M20.428 18.713a1.806 1.806 0 00-1.549 1.344 1.747 1.747 0 101.549-1.344z" fill="#fff"/><path d="M20.55 22.504c-.08 0-.158-.005-.237-.015a2.115 2.115 0 01-1.715-2.5 2.1 2.1 0 011.8-1.565 2 2 0 011.531.563 2.056 2.056 0 01.683 1.531 2.019 2.019 0 01-.733 1.47c-.37.324-.842.506-1.333.513m-.1-3.5a1.528 1.528 0 00-1.282 1.123 1.433 1.433 0 002.349 1.428 1.441 1.441 0 00.53-1.045 1.501 1.501 0 00-.5-1.1 1.42 1.42 0 00-1.084-.41M4.688 21.884a.288.288 0 01-.032-.575 12.007 12.007 0 012.49-.022.29.29 0 01.156.51.287.287 0 01-.211.064 11.452 11.452 0 00-2.369.021h-.033m15.387 13.464a.289.289 0 01-.286-.291l.02-2.364a.288.288 0 01.492-.2.289.289 0 01.083.205l-.02 2.364a.288.288 0 01-.289.286zm-.01-27.504a.289.289 0 01-.286-.291l.02-2.364a.29.29 0 01.289-.286.289.289 0 01.286.291l-.02 2.364a.288.288 0 01-.289.286zm15.3 12.524a.322.322 0 01-.052 0 6.71 6.71 0 00-1.716-.09.29.29 0 01-.044-.575 7.297 7.297 0 011.864.1.289.289 0 01-.052.572" fill="#000"/><g opacity=".129"><mask id="c" style="mask-type:luminance" maskUnits="userSpaceOnUse" x="21" y="20" width="3" height="3"><path d="M23.378 20.704H21.53v1.836h1.848v-1.836z" fill="#fff"/></mask><g mask="url(#c)"><path d="M22.768 20.719a.489.489 0 00-.352.436l-.024.027c-.208.253-.4.254-.755.584a.48.48 0 00.62.706 2.919 2.919 0 001.026-.887c.234-.415.019-.979-.517-.865" fill="#000"/></g></g><g opacity=".129"><mask id="d" style="mask-type:luminance" maskUnits="userSpaceOnUse" x="20" y="3" width="1" height="1"><path d="M20.165 3.648h-.018v.004h.018v-.004z" fill="#fff"/></mask><g mask="url(#d)"><path d="M20.16 3.652h.006c-.018 0-.027-.007-.006 0z" fill="#000"/></g></g><g opacity=".129"><mask id="e" style="mask-type:luminance" maskUnits="userSpaceOnUse" x="3" y="3" width="26" height="30"><path d="M28.819 3.606H3.297v28.942h25.522V3.606z" fill="#fff"/></mask><g mask="url(#e)"><path d="M28.709 5.847a18.7 18.7 0 00-1.178-.535c-.805-.33-1.63-.608-2.471-.832a.244.244 0 01-.19-.258 9.35 9.35 0 00-.838-.149c-1.07-.203-2.16-.29-3.25-.261a.421.421 0 00-.233-.113 17.734 17.734 0 00-.384-.052l.036.008c-.155-.023-.313-.029-.469-.04a6.173 6.173 0 00-.943.009 13.9 13.9 0 00-2.307.453c-1.185.304-2.345.7-3.469 1.185a12.81 12.81 0 00-3.241 1.791 14.659 14.659 0 00-2.355 2.563.384.384 0 00-.287-.035c-.287.136-.174.133-.4.4-.237.341-.447.7-.655 1.059-.284.431-.53.887-.733 1.362a.594.594 0 00-.08.368c-.196.309-.37.63-.523.963a16.423 16.423 0 00-1.436 7.425c.082 1.099.235 2.192.457 3.271a17.68 17.68 0 001.2 3.4.423.423 0 00.311.21c.273.643.628 1.538 1.029 2.306a6.36 6.36 0 001.26 1.767c.139.15.295.285.464.4a.371.371 0 00.469-.153c.189-.325-.175-.557-.368-.767a3.569 3.569 0 01-.342-.409 8.711 8.711 0 01-.795-1.376 22.998 22.998 0 01-.811-1.635c-.15-.387-.432-.973-.733-1.59a22.812 22.812 0 01-.763-3.146c-.55-2.789-.3-5.677.721-8.33a21.335 21.335 0 012.663-4.041 29.853 29.853 0 012.768-2.6 12.94 12.94 0 012.877-2.034c.865-.39 1.754-.728 2.661-1.009a26.442 26.442 0 015.346-.636c.791.072 1.447.206 2.391.358 1.45.209 2.872.57 4.246 1.078a.342.342 0 00.465-.313l-.109-.058" fill="#000"/></g></g><g opacity=".129"><mask id="f" style="mask-type:luminance" maskUnits="userSpaceOnUse" x="11" y="13" width="30" height="27"><path d="M40.402 13.916h-28.68v25.932h28.68V13.916z" fill="#fff"/></mask><g mask="url(#f)"><path d="M39.316 13.916a.414.414 0 00-.361.2.463.463 0 00-.046.313c0 .076.021.27.029.328.02.085.1.864.156 1.325a18.222 18.222 0 01-1.247 10.578 20.548 20.548 0 01-1.661 3.569 1.585 1.585 0 00-.068.1c.134-.177.057-.075-.025.034-.336.409-.692.8-1.048 1.194a33.258 33.258 0 01-4.272 3.887 11.392 11.392 0 01-2.271 1.435c-.246.1.054-.023-.281.109-.825.259-1.628.584-2.458.822a49.92 49.92 0 01-3.45.834 17.21 17.21 0 01-2.563.243c-1.196.103-2.4.055-3.585-.144a24.366 24.366 0 01-3.029-.841c-.305-.109-.613-.21-.921-.313a.395.395 0 10-.21.761c1.394.524 2.823.95 4.276 1.276.666.084 1.334.176 2 .218.732.013 1.463-.04 2.193-.079a13.607 13.607 0 003.405-.417 26.276 26.276 0 002.778-.719c.653-.252 1.34-.4 2.005-.607.475-.17.935-.377 1.377-.62a24.495 24.495 0 004.327-3.43c.857-.73 1.642-1.54 2.346-2.419a13.18 13.18 0 001.711-3.389 22.19 22.19 0 001.436-3.636c.538-2.3.676-4.674.408-7.02a21.9 21.9 0 01-.958-3.593" fill="#000"/></g></g></g></g></svg>