<svg width="21" height="21" fill="none" xmlns="http://www.w3.org/2000/svg"><path d="M10.294 0a10.294 10.294 0 10.002 20.588A10.294 10.294 0 0010.294 0zm7.418 6h-2.763a16.88 16.88 0 00-2.42-3.984A8.605 8.605 0 0117.712 6zm-3.558 4.289a8.76 8.76 0 01-.408 2.574h-6.9a8.76 8.76 0 01-.408-2.574 8.76 8.76 0 01.408-2.574h6.9c.264.833.401 1.7.408 2.574zM7.53 14.584h5.528a16.828 16.828 0 01-2.764 3.936 16.786 16.786 0 01-2.764-3.936zM7.53 6a16.825 16.825 0 012.764-3.936A16.791 16.791 0 0113.058 6H7.53zm.534-3.984A16.879 16.879 0 005.64 6H2.876a8.605 8.605 0 015.188-3.979v-.005zm-5.953 5.7h2.95c-.222.84-.338 1.705-.343 2.574.005.869.12 1.734.343 2.574h-2.95a8.575 8.575 0 010-5.148zm.765 6.863H5.64a16.877 16.877 0 002.424 3.984 8.605 8.605 0 01-5.187-3.984h-.001zm9.653 3.984a16.88 16.88 0 002.42-3.984h2.763a8.605 8.605 0 01-5.183 3.984zm5.948-5.7h-2.95c.222-.84.338-1.705.343-2.574a10.308 10.308 0 00-.343-2.574h2.948a8.573 8.573 0 010 5.147l.002.001z" fill="#A6A6A6"/></svg>