<svg width="25" height="25" viewBox="0 0 25 25" fill="none" xmlns="http://www.w3.org/2000/svg">
<path d="M10.8 9.20312C10.3122 9.43558 9.88733 9.78172 9.5611 10.2125C9.23487 10.6432 9.0168 11.1459 8.9252 11.6785C8.83361 12.211 8.87117 12.7577 9.03473 13.2727C9.19829 13.7877 9.48308 14.2559 9.86515 14.6379C10.2472 15.02 10.7154 15.3048 11.2304 15.4684C11.7454 15.6319 12.2921 15.6695 12.8246 15.5779C13.3571 15.4863 13.8599 15.2682 14.2906 14.942C14.7214 14.6158 15.0675 14.1909 15.3 13.7031" stroke="#0086D3" stroke-width="1.7" stroke-linecap="round" stroke-linejoin="round"/>
<path d="M14.657 5.34312C13.095 4.79989 11.395 4.80271 9.83486 5.35111C8.27473 5.89951 6.94684 6.96104 6.06834 8.36211C5.18985 9.76317 4.81273 11.4209 4.99866 13.0641C5.1846 14.7073 5.92258 16.2388 7.09193 17.4082C8.26127 18.5775 9.79278 19.3155 11.436 19.5014C13.0792 19.6874 14.7369 19.3102 16.138 18.4317C17.539 17.5532 18.6006 16.2254 19.149 14.6652C19.6974 13.1051 19.7002 11.4051 19.157 9.84312" stroke="#0086D3" stroke-width="1.7" stroke-linecap="round" stroke-linejoin="round"/>
<path d="M17.632 2.36808C15.2574 1.07551 12.4966 0.681807 9.85537 1.2591C7.21414 1.83639 4.86934 3.34602 3.25057 5.51142C1.6318 7.67681 0.847438 10.353 1.0412 13.0496C1.23495 15.7462 2.39385 18.2828 4.30557 20.1945C6.2173 22.1062 8.75383 23.2651 11.4505 23.4589C14.1471 23.6526 16.8232 22.8683 18.9886 21.2495C21.154 19.6307 22.6637 17.2859 23.241 14.6447C23.8183 12.0035 23.4245 9.24266 22.132 6.86808" stroke="#0086D3" stroke-width="1.7" stroke-linecap="round" stroke-linejoin="round"/>
<path d="M23.5 1L12.25 12.25" stroke="#0086D3" stroke-width="1.7" stroke-linecap="round" stroke-linejoin="round"/>
</svg>
